<?xml version="1.0" standalone="no"?>
<!DOCTYPE svg PUBLIC "-//W3C//DTD SVG 20010904//EN"
 "http://www.w3.org/TR/2001/REC-SVG-20010904/DTD/svg10.dtd">
<svg version="1.0" xmlns="http://www.w3.org/2000/svg"
 width="225.000000pt" height="225.000000pt" viewBox="0 0 225.000000 225.000000"
 preserveAspectRatio="xMidYMid meet">
<metadata>
Created by potrace 1.16, written by Peter Selinger 2001-2019
</metadata>
<g transform="translate(0.000000,225.000000) scale(0.100000,-0.100000)"
fill="#000000" stroke="none">
<path d="M0 1125 l0 -1125 1125 0 1125 0 0 1125 0 1125 -1125 0 -1125 0 0
-1125z m1701 642 c60 -40 79 -88 79 -199 0 -216 53 -353 150 -392 37 -15 40
-19 40 -55 0 -34 -3 -40 -27 -46 -103 -25 -149 -132 -162 -374 -6 -131 -8
-141 -35 -175 -57 -76 -18 -71 -622 -71 l-542 0 -39 31 c-57 46 -73 85 -73
181 0 233 -60 386 -160 408 -27 6 -30 10 -30 46 0 35 3 40 37 54 103 43 139
132 151 370 8 155 20 186 86 226 29 18 58 19 572 19 l541 0 34 -23z"/>
<path d="M830 1110 l0 -422 223 5 c249 4 274 10 342 69 77 68 95 177 44 268
-26 46 -62 74 -117 91 l-42 12 47 27 c113 65 131 213 36 301 -64 60 -80 63
-315 67 l-218 4 0 -422z m401 294 c99 -57 76 -192 -39 -223 -20 -6 -81 -11
-134 -11 l-98 0 0 123 c0 68 3 126 6 129 3 3 56 5 118 3 91 -1 120 -6 147 -21z
m23 -348 c52 -22 76 -60 76 -121 0 -39 -6 -60 -22 -80 -35 -45 -74 -55 -218
-55 l-130 0 0 135 0 135 130 0 c88 0 141 -4 164 -14z"/>
</g>
</svg>
