<?xml version="1.0" standalone="no"?>
<!DOCTYPE svg PUBLIC "-//W3C//DTD SVG 20010904//EN"
 "http://www.w3.org/TR/2001/REC-SVG-20010904/DTD/svg10.dtd">
<svg version="1.0" xmlns="http://www.w3.org/2000/svg"
 width="225.000000pt" height="225.000000pt" viewBox="0 0 225.000000 225.000000"
 preserveAspectRatio="xMidYMid meet">
<metadata>
Created by potrace 1.16, written by Peter Selinger 2001-2019
</metadata>
<g transform="translate(0.000000,225.000000) scale(0.100000,-0.100000)"
fill="#000000" stroke="none">
<path d="M0 1125 l0 -1125 398 0 c344 0 401 2 420 16 21 14 22 23 22 132 l0
117 -112 0 c-106 0 -116 2 -166 29 -54 30 -94 74 -113 123 -21 56 -72 123
-120 158 -54 39 -62 61 -24 71 62 15 148 -34 207 -118 60 -87 117 -120 201
-120 77 1 137 23 137 50 0 11 13 44 29 74 l28 54 -85 17 c-119 22 -236 81
-298 150 -88 97 -129 221 -128 392 0 123 18 184 79 275 29 44 32 54 24 82 -14
50 -11 158 6 216 l16 52 44 0 c54 0 131 -28 211 -76 l59 -36 95 16 c122 20
280 20 394 0 l90 -15 102 52 c81 42 115 54 163 57 l59 4 12 -38 c18 -61 24
-169 11 -218 -11 -44 -10 -47 29 -108 56 -86 74 -152 73 -273 -2 -229 -94
-400 -255 -475 -66 -31 -204 -70 -246 -70 l-25 0 21 -23 c46 -49 55 -98 60
-325 4 -203 5 -213 25 -227 18 -13 82 -15 414 -15 l393 0 0 1125 0 1125 -1125
0 -1125 0 0 -1125z"/>
</g>
</svg>
