<?xml version="1.0" standalone="no"?>
<!DOCTYPE svg PUBLIC "-//W3C//DTD SVG 20010904//EN"
 "http://www.w3.org/TR/2001/REC-SVG-20010904/DTD/svg10.dtd">
<svg version="1.0" xmlns="http://www.w3.org/2000/svg"
 width="200.000000pt" height="200.000000pt" viewBox="0 0 200.000000 200.000000"
 preserveAspectRatio="xMidYMid meet">
<metadata>
Created by potrace 1.16, written by Peter Selinger 2001-2019
</metadata>
<g transform="translate(0.000000,200.000000) scale(0.100000,-0.100000)"
fill="#000000" stroke="none">
<path d="M0 1000 l0 -1000 1000 0 1000 0 0 1000 0 1000 -1000 0 -1000 0 0
-1000z m1152 776 c488 -94 780 -595 619 -1063 -76 -219 -253 -407 -463 -490
-97 -38 -98 -36 -101 153 -3 145 -8 172 -44 234 -2 3 24 12 57 18 134 28 217
89 266 195 26 57 29 72 29 177 0 106 -2 119 -27 167 -15 28 -31 54 -36 57 -5
3 -7 41 -4 84 3 48 0 94 -8 117 -12 35 -14 37 -49 31 -20 -4 -70 -24 -112 -45
l-77 -38 -73 13 c-93 17 -164 17 -256 0 l-73 -12 -77 38 c-43 21 -94 39 -113
40 -32 3 -35 0 -48 -37 -9 -26 -12 -64 -9 -111 5 -64 3 -76 -18 -106 -79 -117
-68 -323 24 -444 44 -58 135 -109 226 -126 l60 -12 -28 -57 c-24 -51 -32 -59
-63 -65 -19 -3 -54 -4 -77 -1 -36 5 -51 15 -107 76 -69 74 -94 91 -134 91 -37
0 -40 -16 -10 -42 49 -42 66 -63 95 -120 42 -83 94 -112 200 -111 l79 1 0 -84
c0 -80 -1 -85 -24 -96 -22 -9 -39 -4 -128 40 -174 86 -297 208 -378 376 -61
127 -74 190 -75 351 0 159 13 222 71 344 117 249 342 418 614 464 58 10 204 6
272 -7z"/>
</g>
</svg>
