<?xml version="1.0" standalone="no"?>
<!DOCTYPE svg PUBLIC "-//W3C//DTD SVG 20010904//EN"
 "http://www.w3.org/TR/2001/REC-SVG-20010904/DTD/svg10.dtd">
<svg version="1.0" xmlns="http://www.w3.org/2000/svg"
 width="236.000000pt" height="213.000000pt" viewBox="0 0 236.000000 213.000000"
 preserveAspectRatio="xMidYMid meet">
<metadata>
Created by potrace 1.16, written by Peter Selinger 2001-2019
</metadata>
<g transform="translate(0.000000,213.000000) scale(0.100000,-0.100000)"
fill="#000000" stroke="none">
<path d="M1098 2119 c-31 -4 -83 -19 -116 -33 -279 -113 -445 -410 -444 -791
0 -181 45 -362 132 -534 38 -77 40 -82 28 -125 -40 -150 149 -261 258 -152 98
98 35 266 -100 266 -35 0 -37 3 -75 78 -84 168 -117 330 -108 531 7 147 30
239 87 351 88 167 207 254 385 279 235 34 421 -153 489 -490 4 -21 16 -28 63
-43 32 -10 63 -20 69 -23 8 -3 8 15 3 59 -28 213 -130 415 -262 516 -71 55
-168 99 -247 111 -73 12 -81 12 -162 0z"/>
<path d="M984 1451 c-119 -54 -121 -219 -4 -279 34 -18 54 -22 85 -17 50 7 97
37 116 71 l14 27 120 -6 c385 -19 737 -252 852 -565 31 -83 35 -193 9 -267
-37 -111 -134 -212 -246 -257 -47 -19 -73 -23 -180 -23 -108 1 -135 4 -198 26
l-73 26 -59 -46 c-32 -25 -59 -48 -59 -51 -1 -8 105 -46 179 -66 88 -23 263
-23 350 -1 213 56 381 212 420 389 21 92 8 237 -28 335 -109 295 -408 530
-774 609 -40 8 -128 18 -196 21 -115 6 -125 8 -139 29 -17 27 -89 64 -124 64
-13 0 -42 -9 -65 -19z"/>
<path d="M303 1033 c-49 -49 -105 -117 -126 -153 -141 -242 -118 -543 54 -712
173 -169 457 -205 767 -97 172 60 317 154 441 285 71 74 155 192 180 251 9 22
23 33 51 42 77 23 126 117 101 194 -6 18 -27 48 -46 67 -27 26 -44 34 -84 38
-62 6 -101 -9 -140 -53 -43 -49 -49 -104 -18 -166 l24 -50 -34 -57 c-99 -164
-234 -284 -439 -388 -141 -71 -218 -89 -379 -88 -110 0 -139 4 -188 23 -207
81 -313 315 -238 524 27 77 97 181 164 244 l55 52 -18 62 c-9 35 -22 65 -27
66 -6 2 -51 -36 -100 -84z"/>
</g>
</svg>
