<svg id="svg" version="1.1" xmlns="http://www.w3.org/2000/svg" xmlns:xlink="http://www.w3.org/1999/xlink" width="400" height="400" viewBox="0, 0, 400,400"><g id="svgg"><path id="path0" d="M308.203 185.746 C 268.844 188.290,246.679 206.937,246.683 237.500 C 246.687 261.215,259.971 276.994,290.820 289.926 C 316.955 300.881,325.086 307.922,324.561 319.143 C 324.087 329.298,314.112 335.407,296.960 336.049 C 280.620 336.661,262.557 330.903,249.405 320.892 C 248.563 320.251,247.825 319.727,247.764 319.727 C 247.704 319.727,247.677 328.134,247.704 338.409 L 247.754 357.091 250.069 358.137 C 273.118 368.552,312.812 369.697,335.837 360.611 C 354.288 353.331,363.991 340.390,366.107 320.242 C 368.977 292.916,356.173 276.034,321.289 261.148 C 303.170 253.415,297.760 250.380,292.673 245.092 C 284.993 237.109,286.510 227.166,296.306 221.279 C 309.805 213.166,340.340 216.354,357.354 227.653 C 358.230 228.235,358.999 228.711,359.063 228.711 C 359.127 228.711,359.180 220.503,359.180 210.471 L 359.180 192.230 355.908 191.144 C 342.905 186.827,324.208 184.711,308.203 185.746 M92.188 205.859 L 92.188 221.875 117.188 221.875 L 142.188 221.875 142.188 293.359 L 142.188 364.844 162.109 364.844 L 182.031 364.844 182.031 293.359 L 182.031 221.875 207.031 221.875 L 232.031 221.875 232.031 205.859 L 232.031 189.844 162.109 189.844 L 92.188 189.844 92.188 205.859 M247.168 318.129 C 246.487 318.257,246.440 318.492,247.008 318.940 L 247.559 319.375 247.621 318.963 C 247.722 318.300,247.586 318.050,247.168 318.129 " stroke="none" fill="#fbfbfb" fill-rule="evenodd"></path><path id="path1" d="M33.398 0.311 C 16.236 2.810,2.659 16.471,0.301 33.614 C -0.216 37.371,-0.059 365.115,0.460 367.773 C 3.679 384.236,15.764 396.321,32.227 399.540 C 34.885 400.059,362.629 400.216,366.386 399.699 C 383.571 397.335,397.296 383.628,399.694 366.435 C 400.162 363.084,400.162 36.916,399.694 33.565 C 397.400 17.116,385.400 4.416,368.555 0.609 L 366.309 0.102 200.781 0.071 C 60.769 0.046,34.968 0.083,33.398 0.311 M326.465 185.754 C 337.640 186.330,348.308 188.295,356.954 191.369 L 359.082 192.126 359.132 210.516 C 359.159 220.631,359.155 228.906,359.122 228.906 C 359.089 228.906,358.188 228.330,357.119 227.625 C 343.294 218.508,319.542 214.379,303.937 218.380 C 288.083 222.445,282.948 235.386,293.170 245.520 C 298.150 250.458,303.728 253.540,321.094 260.949 C 346.072 271.606,359.210 282.761,364.040 297.410 C 369.642 314.400,365.456 337.115,354.611 348.574 C 345.150 358.571,331.021 364.194,309.961 366.343 C 305.687 366.779,290.277 366.848,285.742 366.451 C 270.566 365.123,259.729 362.620,249.854 358.161 L 247.656 357.169 247.656 338.369 L 247.656 319.569 246.924 318.981 C 246.115 318.331,246.127 318.226,247.036 318.044 C 247.649 317.921,247.656 317.929,247.656 318.693 C 247.656 319.546,248.588 320.354,252.832 323.182 C 268.894 333.887,290.319 338.442,307.300 334.761 C 318.746 332.280,325.270 325.594,324.504 317.128 C 323.566 306.768,314.756 299.832,289.202 289.335 C 271.194 281.938,257.120 270.830,251.449 259.539 C 244.576 245.854,244.970 226.560,252.385 213.681 C 264.393 192.824,288.358 183.790,326.465 185.754 M232.031 205.859 L 232.031 221.875 207.031 221.875 L 182.031 221.875 182.031 293.359 L 182.031 364.844 162.109 364.844 L 142.188 364.844 142.188 293.359 L 142.188 221.875 117.188 221.875 L 92.188 221.875 92.188 205.859 L 92.188 189.844 162.109 189.844 L 232.031 189.844 232.031 205.859 " stroke="none" fill="#2c7bc4" fill-rule="evenodd"></path><path id="path2" d="M314.990 185.495 C 315.447 185.536,316.194 185.536,316.650 185.495 C 317.107 185.453,316.733 185.420,315.820 185.420 C 314.907 185.420,314.534 185.453,314.990 185.495 M323.877 185.682 C 324.065 185.731,324.373 185.731,324.561 185.682 C 324.749 185.632,324.595 185.592,324.219 185.592 C 323.843 185.592,323.689 185.632,323.877 185.682 M259.950 203.467 L 259.277 204.199 260.010 203.526 C 260.691 202.900,260.832 202.734,260.683 202.734 C 260.650 202.734,260.321 203.064,259.950 203.467 M353.906 281.348 C 354.923 282.368,355.798 283.203,355.852 283.203 C 355.905 283.203,355.118 282.368,354.102 281.348 C 353.085 280.327,352.210 279.492,352.156 279.492 C 352.102 279.492,352.890 280.327,353.906 281.348 M366.481 314.160 C 366.481 315.449,366.513 315.951,366.551 315.276 C 366.589 314.600,366.589 313.545,366.550 312.932 C 366.512 312.318,366.480 312.871,366.481 314.160 M290.774 366.740 C 291.017 366.786,291.368 366.785,291.555 366.736 C 291.742 366.687,291.543 366.649,291.113 366.651 C 290.684 366.653,290.531 366.693,290.774 366.740 M303.469 366.740 C 303.712 366.786,304.064 366.785,304.250 366.736 C 304.437 366.687,304.238 366.649,303.809 366.651 C 303.379 366.653,303.226 366.693,303.469 366.740 " stroke="none" fill="#79a8db" fill-rule="evenodd"></path><path id="path3" d="M309.814 185.682 C 310.002 185.731,310.310 185.731,310.498 185.682 C 310.686 185.632,310.532 185.592,310.156 185.592 C 309.780 185.592,309.626 185.632,309.814 185.682 M322.219 185.685 C 322.462 185.732,322.814 185.730,323.000 185.681 C 323.187 185.632,322.988 185.594,322.559 185.596 C 322.129 185.598,321.976 185.638,322.219 185.685 M316.553 216.746 C 317.117 216.785,318.040 216.785,318.604 216.746 C 319.167 216.706,318.706 216.674,317.578 216.674 C 316.450 216.674,315.989 216.706,316.553 216.746 M292.078 224.463 L 291.504 225.098 292.139 224.524 C 292.730 223.989,292.863 223.828,292.712 223.828 C 292.679 223.828,292.393 224.114,292.078 224.463 M318.750 305.566 C 319.114 305.942,319.457 306.250,319.510 306.250 C 319.564 306.250,319.310 305.942,318.945 305.566 C 318.581 305.190,318.239 304.883,318.185 304.883 C 318.131 304.883,318.386 305.190,318.750 305.566 M292.041 336.077 C 292.336 336.122,292.820 336.122,293.115 336.077 C 293.411 336.033,293.169 335.996,292.578 335.996 C 291.987 335.996,291.746 336.033,292.041 336.077 M296.048 336.079 C 296.399 336.123,296.927 336.122,297.220 336.077 C 297.514 336.032,297.227 335.997,296.582 335.998 C 295.938 335.999,295.697 336.036,296.048 336.079 M353.607 349.463 L 352.441 350.684 353.662 349.518 C 354.796 348.435,354.972 348.242,354.828 348.242 C 354.798 348.242,354.248 348.792,353.607 349.463 M292.529 366.739 C 292.771 366.786,293.167 366.786,293.408 366.739 C 293.650 366.693,293.452 366.655,292.969 366.655 C 292.485 366.655,292.288 366.693,292.529 366.739 M301.711 366.740 C 301.954 366.786,302.306 366.785,302.493 366.736 C 302.679 366.687,302.480 366.649,302.051 366.651 C 301.621 366.653,301.468 366.693,301.711 366.740 " stroke="none" fill="#9cbce4" fill-rule="evenodd"></path><path id="path4" d="M293.994 336.077 C 294.290 336.122,294.773 336.122,295.068 336.077 C 295.364 336.033,295.122 335.996,294.531 335.996 C 293.940 335.996,293.699 336.033,293.994 336.077 " stroke="none" fill="#94bce4" fill-rule="evenodd"></path></g></svg>